<?xml version="1.0" encoding="UTF-8"?>
<svg enable-background="new 0 0 176.4 179.7" version="1.1" viewBox="0 0 176.4 179.7" xml:space="preserve" xmlns="http://www.w3.org/2000/svg">
<g fill="#ED1C24">
	<path d="m121.8 170.3c0 5.2 4.2 9.3 9.4 9.3h35.9c5.2 0 9.4-4.2 9.4-9.3v-97.1c0-5.2-4.2-9.4-9.4-9.4h-94.7c-5.1 0-9.4 4.2-9.4 9.4v33.8c0 5.1 4.2 9.4 9.4 9.4h35.3c7.7 0 14 6.3 14 14v39.9z"/>
	<path d="M166.6,59.1c2.2,0,4-1.8,4-4c0-1.1-0.4-2.1-1.2-2.9L117.1,0h-58L0,59.1V121l58.4,58.7h49.3   c5.2,0,9.4-4.2,9.4-9.3v-40c0-5.1-4.2-9.4-9.3-9.4H72.4c-7.8,0-14-6.3-14-14V73.2c0-7.8,6.3-14,14-14H166.6z"/>
</g>
</svg>
